<?xml version="1.0" encoding="utf-8"?>
<!-- Generator: Adobe Illustrator 17.0.0, SVG Export Plug-In . SVG Version: 6.00 Build 0)  -->
<!DOCTYPE svg PUBLIC "-//W3C//DTD SVG 1.1//EN" "http://www.w3.org/Graphics/SVG/1.1/DTD/svg11.dtd">
<svg version="1.1" id="Layer_1" xmlns="http://www.w3.org/2000/svg" xmlns:xlink="http://www.w3.org/1999/xlink" x="0px" y="0px"
	 width="500px" height="500px" viewBox="0 0 500 500" enable-background="new 0 0 500 500" xml:space="preserve">
<path fill="#F47D20" d="M0.908,375.273c-0.654-28.797-0.654-250.661,0-278.804V375.273z"/>
<path fill="#437A3A" d="M501.25,110.96c0.65-29.45-18.98-47.77-46.47-47.77H48.36c-24.03,0-44.57,17.38-47.45,42.89
	c-0.06,0.55-0.12,1.11-0.16,1.68c0,0,0,0,0,0.01c-0.09,1.05-0.15,2.11-0.17,3.19c-0.65,28.15-0.65,250.01,0,278.81
	c0.65,28.79,20.29,50.39,47.78,50.39h406.42c25.53,0,47.12-22.9,46.48-47.12C500.63,368.83,500.59,140.42,501.25,110.96z
	 M454.78,389.77H48.36V209.79l124.35,99.48c0,0,35.99,35.34,78.86,35.34s78.86-36,78.86-36l124.35-98.82V389.77z M454.78,148.27
	l-22.25,18.98l-35.34,27.49l-75.27,59.55l-15.7,13.09c0,0-29.45,28.15-54.65,29.45c-25.2,1.31-55.3-28.79-55.3-28.79l-16.37-13.09
	l-75.26-61.52l-34.69-26.18l-21.59-17.67v-38.62h406.42V148.27z"/>
</svg>
