<?xml version="1.0" encoding="utf-8"?>
<!-- Generator: Adobe Illustrator 17.0.0, SVG Export Plug-In . SVG Version: 6.00 Build 0)  -->
<!DOCTYPE svg PUBLIC "-//W3C//DTD SVG 1.1//EN" "http://www.w3.org/Graphics/SVG/1.1/DTD/svg11.dtd">
<svg version="1.1" id="Layer_1" xmlns="http://www.w3.org/2000/svg" xmlns:xlink="http://www.w3.org/1999/xlink" x="0px" y="0px"
	 width="500px" height="500px" viewBox="0 0 500 500" enable-background="new 0 0 500 500" xml:space="preserve">
<path fill="#F47D20" d="M0.908,375.273c-0.654-28.797-0.654-250.661,0-278.804V375.273z"/>
<path fill="#437A3A" d="M250,0.995c-137.51,0-249,111.49-249,249c0,137.52,111.49,249.01,249,249.01c137.52,0,249-111.49,249-249.01
	C499,112.485,387.52,0.995,250,0.995z M250.72,218.325c-1.73,7.55-13.47,20.93-13.47,20.93s-5,7.83-5.64,8.1s-3.37,1.09-4.64,1.27
	c-1.28,0.19-3.37,0.37-4.55,0.37s0-0.28-3.73,0c-3.73,0.27-5.46,0.54-5.46,0.54s-7.74,6.74-7.83,7.38
	c-0.09,0.63-0.73,1.82-1.18,2.54c-0.46,0.73-1,2.28-1.37,2.73c-0.36,0.46-0.45,1.73-0.45,2.1c0,0.36,0.09,1.45,0,1.91
	c-0.09,0.45-0.46,2.64-0.46,3.09c0,0.46,4.37,5.1,4.64,5.37c0.28,0.27,0.82,1.55,2.55,3.19c1.73,1.63,2.82,2.54,4.19,4.36
	c1.36,1.82,2.64,2.28,3,4.19c0.36,1.91-0.27,7.46-0.27,8.56c0,1.09-0.64,3.64-1.46,4.91c-0.82,1.27-3,8.01-3.55,8.83
	c-0.54,0.82-1.91,2.36-2.64,3.09c-0.73,0.73-2.64,1.82-3.91,2c-1.27,0.19-5.73-0.09-6.01,0c-0.27,0.09-1.64,0.13-2.09,0.07
	c-0.46-0.07-5.37,2.3-7.19,1.12c-1.82-1.19-1.18,0.18-3.37-2.1c-2.18-2.27-3.64-4-4.55-5.64c-0.91-1.64-4-6.55-4-6.55
	s-4.1-7.1-4.64-7.65c-0.55-0.54-6.83-16.11-7.83-17.65c-1-1.55-4.73-6.56-6.55-9.38s-3.73-6.64-4.92-8.64
	c-1.18-2.01-1.27-2.46-2.54-3.01c-1.28-0.54-1.19-0.72-2.46-0.27c-1.28,0.46-0.73-0.36-2.73,1.37c-2,1.72-4.1,3-4.73,3.54
	c-0.64,0.55-2.19,2.46-3.28,3.46c-1.09,1-2.37,1.73-3.73,3.28c-1.37,1.55-1.37,1.64-2.64,3.18c-1.27,1.55-2,2.46-3.28,3.55
	c-1.27,1.09-1.27,1-2.27,2.1c-1,1.09-0.46,3.09-1.82,3.73c-1.37,0.63-4.19,1.82-7.46,2.09l-66.8,0.45l-2.53-30.84
	c-0.97-111.61,89.8-199.95,199.98-199.95c0,0,43.2,1.94,62.13,10.2l-51.45,38.34c0,0-9.22,8.25,1.94,14.08
	c11.17,5.82,17.47,9.22,17.47,9.22s1.95,4.85,1.95,11.16s0,79.12,0,79.12s-5.89,16.99-22.63-1.94
	C256.46,210.225,252.45,210.765,250.72,218.325z M406.98,350.555c0,0-0.37,3.46-0.55,4.73c-0.18,1.28-3.09,6.56-3.27,7.47
	c-0.19,0.91-0.73,2.18-2.01,4.18c-1.27,2-4,5.1-4.91,5.83c-0.91,0.72,0,0.91-3.09,2c-3.1,1.09-5.28,0.54-6.92,1.09
	s-1.09,2.18-4.55,2.37c-3.46,0.18-5.1-0.19-5.64,0c-0.55,0.18-2.01,0.28-5.83,0.05c-3.82-0.24-10.01-0.96-10.56-1.15
	c-0.54-0.18-1.27-0.36-4-2.73c-2.73-2.36-2.55-0.72-5.64-4.36c-3.1-3.64-4.55-2.73-7.65-6.19c-3.09-3.46-0.73-1.64-4.37-5.1
	s-3.09-4.91-6.37-5.28c-3.27-0.36-2.73-0.36-6-0.54c-3.28-0.19-8.56-0.19-9.11-0.19h-5.09c-2.37,0-1.46,0.19-4.19,0.73
	c-2.73,0.55-3.46,2.19-6.55,2.55c-3.09,0.36-3.64,0.55-5.64,0.73c-2.01,0.18-4.37-0.18-5.83,0.18c-1.46,0.36-1.27,0.36-3.64,0.36
	s-3.46,0.19-5.1,0c-1.63-0.18-4.55-0.72-5.09-0.91c-0.55-0.18-4.55-1.27-4.55-1.27s-2.91-2.37-3.82-3.46
	c-0.91-1.09-2.37-2.55-3.46-3.64c-1.09-1.09-3.82-3.09-4.19-4.37c-0.36-1.27-0.91-1.82-1.45-3.82c-0.55-2-2.01-4.18-2.01-6
	s-0.18-3.28,0-5.28c0.19-2.01-2.34-1.28-0.08-2.73c2.27-1.46,3.54-2.92,4.82-3.83c1.27-0.91,1.63-2,3.45-2.54
	c1.82-0.55,2.73-1.1,4.19-1.46c1.46-0.36,1.82-0.36,4.37-1.27c2.55-0.91,2.55-1.34,4-1.4c1.46-0.06,4.01-0.97,6.37-2.43
	c2.37-1.45,2.37-1.45,4.74-2.91c2.36-1.45,3.27-1.82,6-3.09c2.73-1.28,2.91-1.64,4.92-2.19c2-0.54,6.92-2.36,6.92-2.36l22.39-16.02
	c0,0,1.09-1.64,2.18-2c1.09-0.37,0.18-0.91,2.37-0.91c2.18,0,3.27,0.18,5.09,0c1.82-0.18,5.1,0.36,5.65,0
	c0.54-0.37,0.18-1.17,2.73-0.04c2.55,1.13,3.64,1.13,4.37,2.95c0.72,1.82,2.18,4,3.82,5.28c1.64,1.27,2,0.55,3.09,2.73
	c1.09,2.18,0.91,4,0.91,6.55s-1.27,2.73,0.91,3.28c2.18,0.54,0.91-0.73,4.19,0c3.27,0.73,2.73,0.83,4.91,0.14
	c2.18-0.69,3.64-0.14,4.92-2.51c1.27-2.36,0.54-2,1.82-5.64c1.27-3.64,0.72-3.82,1.45-5.64c0.73-1.82,1.64-4.74,2.19-5.1
	c0.54-0.36,1.82-1.46,3.45-0.91c1.64,0.55,1.64-0.18,4.19,3.46c2.55,3.64,2.55,3.99,2.55,5.81v4.56c0,1.46-2,0.73,0,3.64
	c2,2.92,2.36,3.46,3.09,4.55c0.73,1.1,4.01,2.91,4.37,3.64c0.36,0.73,2.18,2.73,3.46,3.83c1.27,1.09,2.55,2.36,3.46,4
	c0.91,1.64,0.91,1.64,0.91,1.64s-0.73,0.91,0,2.18c0.72,1.27,0.91,2.18,1.09,3.64c0.18,1.46-1.64,2.91,0,5.64
	c1.64,2.74,0.91,5.83,1.64,8.2c0.72,2.36,1.27,8.37,1.27,8.91C408.07,348.735,406.98,350.555,406.98,350.555z"/>
</svg>
