<?xml version="1.0" encoding="utf-8"?>
<!-- Generator: Adobe Illustrator 17.0.0, SVG Export Plug-In . SVG Version: 6.00 Build 0)  -->
<!DOCTYPE svg PUBLIC "-//W3C//DTD SVG 1.1//EN" "http://www.w3.org/Graphics/SVG/1.1/DTD/svg11.dtd">
<svg version="1.1" id="Layer_1" xmlns="http://www.w3.org/2000/svg" xmlns:xlink="http://www.w3.org/1999/xlink" x="0px" y="0px"
	 width="500px" height="500px" viewBox="0 0 500 500" enable-background="new 0 0 500 500" xml:space="preserve">
<circle fill="#316DD9" cx="251" cy="251" r="250"/>
<g>
	<path fill="#FFFFFF" d="M316.78,218.922c-0.357-7.852-1.666-12.12-2.771-14.954c-1.463-3.76-3.203-6.447-6.024-9.263
		c-2.821-2.817-5.503-4.565-9.262-6.024c-2.843-1.095-7.104-2.412-14.954-2.77c-8.496-0.387-11.048-0.47-32.543-0.47
		s-24.045,0.078-32.534,0.468c-7.85,0.356-12.119,1.665-14.954,2.77c-3.766,1.457-6.446,3.203-9.262,6.024
		c-2.817,2.821-4.56,5.503-6.024,9.263c-1.095,2.843-2.412,7.103-2.771,14.954c-0.383,8.495-0.468,11.038-0.468,32.542
		c0,21.506,0.077,24.055,0.468,32.543c0.357,7.852,1.666,12.12,2.771,14.954c1.457,3.76,3.203,6.44,6.024,9.256
		c2.821,2.817,5.503,4.56,9.262,6.024c2.837,1.105,7.104,2.412,14.954,2.771v0.001c8.486,0.39,11.028,0.468,32.534,0.468
		c21.504,0,24.054-0.077,32.543-0.468c7.85-0.357,12.119-1.666,14.954-2.771c3.759-1.463,6.446-3.21,9.262-6.024
		c2.817-2.814,4.56-5.496,6.024-9.256c1.099-2.835,2.412-7.103,2.771-14.954c0.39-8.495,0.468-11.038,0.468-32.542
		C317.248,229.96,317.17,227.417,316.78,218.922z M251.226,292.812c-22.838,0-41.35-18.513-41.35-41.35
		c0-22.839,18.513-41.35,41.35-41.35s41.35,18.513,41.35,41.35S274.064,292.812,251.226,292.812z M294.21,218.139
		c-5.337-0.001-9.663-4.33-9.661-9.667c0.005-5.334,4.33-9.657,9.664-9.659h0.003c5.337,0.002,9.663,4.33,9.661,9.667
		C303.875,213.817,299.546,218.142,294.21,218.139z"/>
	<path fill="#FFFFFF" d="M358.615,197.577c-0.586-12.891-2.731-19.894-4.547-24.551c-2.403-6.171-5.258-10.578-9.889-15.204
		c-4.632-4.625-9.032-7.499-15.204-9.888c-4.67-1.804-11.661-3.962-24.551-4.549c-13.948-0.625-18.122-0.767-53.426-0.767
		c-35.29,0-39.478,0.129-53.419,0.767c-12.89,0.586-19.893,2.732-24.551,4.548c-6.178,2.389-10.578,5.264-15.204,9.889
		c-4.619,4.638-7.486,9.038-9.888,15.211c-1.804,4.67-3.962,11.661-4.549,24.551c-0.625,13.948-0.767,18.122-0.767,53.426
		c0,35.303,0.129,39.484,0.774,53.42c0.585,12.891,2.731,19.894,4.547,24.551c2.391,6.171,5.257,10.571,9.889,15.197
		c4.632,4.626,9.032,7.487,15.204,9.889c4.657,1.816,11.659,3.962,24.551,4.547c13.935,0.645,18.122,0.767,53.412,0.767
		c35.304,0,39.492-0.129,53.426-0.767c12.891-0.585,19.894-2.731,24.551-4.547c6.173-2.403,10.578-5.263,15.204-9.889
		c4.626-4.626,7.487-9.026,9.889-15.197c1.803-4.658,3.961-11.661,4.547-24.551c0.637-13.948,0.767-18.136,0.767-53.426
		C359.382,215.699,359.253,211.525,358.615,197.577z M331.265,284.662c-0.383,8.573-1.75,14.428-3.74,19.546
		c-2.062,5.296-4.806,9.791-9.289,14.266c-4.482,4.475-8.969,7.227-14.264,9.288c-5.12,1.991-10.973,3.351-19.546,3.741
		c-8.587,0.397-11.332,0.488-33.2,0.488s-24.61-0.098-33.2-0.488c-8.573-0.39-14.421-1.75-19.546-3.741
		c-5.302-2.062-9.784-4.815-14.266-9.288c-4.48-4.473-7.232-8.971-9.288-14.266c-1.991-5.119-3.351-10.973-3.741-19.546
		c-0.397-8.586-0.488-11.332-0.488-33.2s0.091-24.614,0.488-33.2c0.39-8.572,1.75-14.427,3.741-19.546
		c2.056-5.301,4.806-9.791,9.288-14.264c4.482-4.475,8.971-7.233,14.266-9.289c5.115-1.99,10.973-3.349,19.546-3.74h0.003
		c8.59-0.397,11.341-0.488,33.206-0.488c21.867,0,24.61,0.096,33.197,0.488c8.567,0.383,14.421,1.75,19.547,3.74
		c5.288,2.056,9.784,4.807,14.258,9.289c4.475,4.482,7.228,8.969,9.289,14.264c1.99,5.116,3.349,10.973,3.74,19.546
		c0.39,8.587,0.482,11.332,0.482,33.2S331.656,276.07,331.265,284.662z"/>
	<path fill="none" d="M197.584,358.615c-12.891-0.586-19.894-2.731-24.552-4.548c-6.172-2.403-10.572-5.263-15.204-9.889
		c-4.632-4.626-7.499-9.026-9.889-15.197c-1.817-4.658-3.962-11.661-4.548-24.551c-0.644-13.935-0.773-18.116-0.773-53.42
		s0.141-39.478,0.767-53.425c0.586-12.891,2.744-19.881,4.548-24.552c2.403-6.172,5.27-10.572,9.889-15.21
		c4.626-4.626,9.026-7.499,15.204-9.889c4.658-1.817,11.661-3.962,24.552-4.548c13.941-0.637,18.128-0.767,53.42-0.767
		c35.304,0,39.478,0.141,53.425,0.767c12.891,0.586,19.881,2.744,24.551,4.548c6.172,2.39,10.572,5.263,15.204,9.889
		c4.632,4.626,7.486,9.032,9.889,15.204c1.817,4.658,3.962,11.661,4.548,24.552c0.638,13.947,0.767,18.122,0.767,53.425
		c0,35.291-0.129,39.478-0.767,53.425c-0.586,12.891-2.744,19.894-4.548,24.551c-2.403,6.172-5.263,10.572-9.889,15.197
		c-4.626,4.626-9.032,7.486-15.204,9.889c-4.658,1.817-11.661,3.962-24.551,4.548c-13.935,0.637-18.122,0.767-53.425,0.767
		C215.706,359.382,211.518,359.26,197.584,358.615"/>
</g>
</svg>
