<?xml version="1.0" encoding="utf-8"?>
<!-- Generator: Adobe Illustrator 17.0.0, SVG Export Plug-In . SVG Version: 6.00 Build 0)  -->
<!DOCTYPE svg PUBLIC "-//W3C//DTD SVG 1.1//EN" "http://www.w3.org/Graphics/SVG/1.1/DTD/svg11.dtd">
<svg version="1.1" id="Layer_1" xmlns="http://www.w3.org/2000/svg" xmlns:xlink="http://www.w3.org/1999/xlink" x="0px" y="0px"
	 width="500px" height="500px" viewBox="0 0 500 500" enable-background="new 0 0 500 500" xml:space="preserve">
<path fill="#FFFFFF" d="M399.928,175.256c-0.82-18.026-3.824-27.826-6.361-34.334c-3.36-8.633-7.354-14.801-13.83-21.267
	c-6.476-6.466-12.634-10.482-21.264-13.83c-6.528-2.514-16.31-5.538-34.334-6.359c-19.506-0.888-25.365-1.078-74.716-1.078
	s-55.205,0.18-74.695,1.076c-18.024,0.818-27.824,3.822-34.334,6.359c-8.646,3.345-14.799,7.354-21.264,13.83
	c-6.468,6.476-10.469,12.634-13.83,21.267c-2.514,6.526-5.538,16.307-6.361,34.334c-0.88,19.503-1.073,25.341-1.073,74.713
	c0,49.375,0.177,55.228,1.073,74.716c0.82,18.026,3.824,27.826,6.361,34.334c3.345,8.633,7.354,14.786,13.83,21.251
	c6.476,6.468,12.634,10.469,21.264,13.83c6.512,2.537,16.31,5.538,34.334,6.361v0.003c19.483,0.896,25.32,1.073,74.695,1.073
	c49.372,0,55.226-0.177,74.716-1.073c18.024-0.82,27.824-3.824,34.334-6.361c8.63-3.36,14.799-7.37,21.264-13.83
	c6.468-6.46,10.469-12.618,13.83-21.251c2.522-6.51,5.538-16.307,6.361-34.334c0.896-19.504,1.073-25.341,1.073-74.713
	C401.001,200.597,400.824,194.759,399.928,175.256z M249.422,344.9c-52.433,0-94.936-42.503-94.936-94.936
	c0-52.436,42.503-94.936,94.936-94.936s94.936,42.503,94.936,94.936S301.856,344.9,249.422,344.9z M348.11,173.458
	c-12.254-0.003-22.184-9.941-22.179-22.194c0.011-12.246,9.941-22.171,22.187-22.176h0.008c12.254,0.005,22.184,9.941,22.179,22.194
	C370.299,163.536,360.361,173.464,348.11,173.458z"/>
<path fill="#FFFFFF" d="M495.976,126.251c-1.347-29.595-6.27-45.673-10.441-56.366c-5.517-14.168-12.072-24.286-22.705-34.907
	c-10.633-10.618-20.736-17.216-34.907-22.702c-10.722-4.142-26.771-9.097-56.367-10.443c-32.023-1.435-41.607-1.761-122.661-1.761
	c-81.022,0-90.638,0.297-122.645,1.761C96.656,3.179,80.578,8.105,69.885,12.275C55.701,17.761,45.599,24.36,34.978,34.978
	C24.374,45.627,17.791,55.729,12.276,69.9C8.134,80.622,3.179,96.672,1.832,126.267c-1.435,32.023-1.761,41.607-1.761,122.661
	c0,81.051,0.297,90.651,1.777,122.645c1.344,29.595,6.27,45.673,10.441,56.367c5.489,14.168,12.069,24.271,22.705,34.891
	c10.633,10.62,20.736,17.188,34.907,22.705c10.693,4.17,26.769,9.097,56.366,10.441c31.992,1.48,41.607,1.761,122.629,1.761
	c81.054,0,90.669-0.297,122.661-1.761c29.595-1.344,45.673-6.27,56.367-10.441c14.171-5.517,24.286-12.084,34.907-22.705
	c10.62-10.62,17.188-20.723,22.705-34.891c4.139-10.694,9.094-26.771,10.441-56.367c1.464-32.023,1.761-41.638,1.761-122.661
	C497.737,167.857,497.44,158.274,495.976,126.251z M433.185,326.188c-0.88,19.683-4.017,33.125-8.586,44.876
	c-4.733,12.158-11.035,22.478-21.327,32.752c-10.29,10.274-20.592,16.591-32.75,21.324c-11.754,4.572-25.193,7.693-44.876,8.589
	c-19.715,0.912-26.016,1.12-76.224,1.12s-56.502-0.224-76.224-1.12c-19.683-0.896-33.109-4.017-44.876-8.589
	c-12.173-4.733-22.463-11.056-32.752-21.324c-10.287-10.269-16.604-20.595-21.324-32.752c-4.572-11.751-7.692-25.193-8.588-44.876
	c-0.912-19.712-1.12-26.016-1.12-76.224s0.208-56.51,1.12-76.224c0.896-19.681,4.017-33.122,8.588-44.876
	c4.72-12.171,11.035-22.478,21.324-32.75c10.29-10.274,20.595-16.607,32.752-21.327c11.743-4.569,25.193-7.69,44.876-8.586h0.008
	c19.722-0.912,26.037-1.12,76.237-1.12c50.203,0,56.502,0.219,76.216,1.12c19.668,0.88,33.109,4.017,44.878,8.586
	c12.142,4.72,22.463,11.035,32.734,21.327c10.274,10.29,16.594,20.592,21.327,32.75c4.569,11.746,7.69,25.193,8.586,44.876
	c0.896,19.715,1.105,26.016,1.105,76.224S434.082,306.46,433.185,326.188z"/>
<path fill="none" d="M126.267,495.976c-29.596-1.346-45.674-6.271-56.368-10.442c-14.17-5.517-24.272-12.084-34.906-22.704
	c-10.635-10.62-17.217-20.722-22.704-34.891c-4.171-10.694-9.096-26.771-10.442-56.367c-1.479-31.992-1.775-41.592-1.775-122.645
	s0.325-90.638,1.76-122.659C3.178,96.671,8.133,80.623,12.274,69.9c5.517-14.17,12.099-24.272,22.704-34.921
	c10.62-10.62,20.722-17.217,34.906-22.704c10.694-4.171,26.771-9.096,56.368-10.442c32.007-1.464,41.621-1.76,122.645-1.76
	c81.053,0,90.638,0.325,122.659,1.76c29.596,1.346,45.644,6.301,56.367,10.442c14.17,5.488,24.272,12.084,34.906,22.704
	c10.635,10.62,17.187,20.737,22.704,34.906c4.171,10.694,9.096,26.771,10.442,56.368c1.464,32.022,1.76,41.606,1.76,122.659
	c0,81.024-0.296,90.638-1.76,122.659c-1.346,29.596-6.301,45.674-10.442,56.367c-5.517,14.17-12.084,24.272-22.704,34.891
	c-10.62,10.62-20.737,17.187-34.906,22.704c-10.694,4.171-26.771,9.096-56.367,10.442c-31.992,1.464-41.606,1.76-122.659,1.76
	C167.873,497.736,158.259,497.455,126.267,495.976"/>
</svg>
