<?xml version="1.0" encoding="utf-8"?>
<!-- Generator: Adobe Illustrator 17.0.0, SVG Export Plug-In . SVG Version: 6.00 Build 0)  -->
<!DOCTYPE svg PUBLIC "-//W3C//DTD SVG 1.1//EN" "http://www.w3.org/Graphics/SVG/1.1/DTD/svg11.dtd">
<svg version="1.1" id="Layer_1" xmlns="http://www.w3.org/2000/svg" xmlns:xlink="http://www.w3.org/1999/xlink" x="0px" y="0px"
	 width="500px" height="500px" viewBox="0 0 500 500" enable-background="new 0 0 500 500" xml:space="preserve">
<path fill="#F47D20" d="M0.908,381.273c-0.654-28.797-0.654-250.661,0-278.804"/>
<path fill="#437A3A" d="M129.461,37.96c-9.065-20.154-18.609-20.557-27.233-20.91c-7.054-0.303-15.129-0.284-23.192-0.284
	c-8.069,0-21.181,3.032-32.269,15.142C35.672,44.018,4.405,73.293,4.405,132.833c0,59.547,43.371,117.082,49.416,125.163
	c6.052,8.069,83.722,134.16,206.73,182.668c102.23,40.313,123.033,32.294,145.223,30.277c22.19-2.017,71.599-29.269,81.685-57.529
	c10.086-28.254,10.086-52.473,7.06-57.536c-3.026-5.043-11.095-8.069-23.198-14.121s-71.599-35.333-82.694-39.368
	c-11.095-4.034-19.164-6.052-27.233,6.065c-8.069,12.103-31.249,39.355-38.309,47.424c-7.06,8.088-14.121,9.096-26.224,3.044
	c-12.103-6.07-51.081-18.836-97.319-60.064c-35.976-32.074-60.266-71.688-67.326-83.804c-7.06-12.103-0.757-18.66,5.314-24.693
	c5.434-5.422,12.103-14.127,18.155-21.194c6.039-7.067,8.056-12.11,12.091-20.179c4.034-8.082,2.017-15.148-1.009-21.2
	C163.741,121.737,140.222,61.889,129.461,37.96L129.461,37.96z"/>
</svg>
