<?xml version="1.0" encoding="utf-8"?>
<!-- Generator: Adobe Illustrator 17.0.0, SVG Export Plug-In . SVG Version: 6.00 Build 0)  -->
<!DOCTYPE svg PUBLIC "-//W3C//DTD SVG 1.1//EN" "http://www.w3.org/Graphics/SVG/1.1/DTD/svg11.dtd">
<svg version="1.1" id="Layer_1" xmlns="http://www.w3.org/2000/svg" xmlns:xlink="http://www.w3.org/1999/xlink" x="0px" y="0px"
	 width="500px" height="500px" viewBox="0 0 500 500" enable-background="new 0 0 500 500" xml:space="preserve">
<circle fill="#316DD9" cx="250" cy="250.188" r="250"/>
<path fill="#FFFFFF" stroke="#5FA8DB" stroke-width="0.5" d="M283.896,167.429v-0.037h9.451l3.453,0.698
	c2.302,0.454,4.392,1.048,6.27,1.783c1.878,0.736,3.696,1.593,5.453,2.573s3.35,1.979,4.781,2.996
	c1.417,1.005,2.689,2.07,3.817,3.198c1.114,1.139,2.853,1.434,5.216,0.882c2.363-0.551,4.907-1.317,7.634-2.297
	c2.727-0.98,5.423-2.083,8.088-3.308c2.666-1.225,4.289-2.004,4.871-2.334c0.569-0.342,0.872-0.527,0.908-0.551l0.036-0.055
	l0.182-0.092l0.182-0.092l0.182-0.092l0.182-0.092l0.036-0.055l0.055-0.037l0.055-0.037l0.036-0.055l0.182-0.055l0.182-0.037
	l-0.036,0.276l-0.055,0.276l-0.091,0.276l-0.091,0.276l-0.091,0.184l-0.091,0.184l-0.091,0.276
	c-0.061,0.184-0.121,0.429-0.182,0.736c-0.061,0.306-0.636,1.532-1.727,3.676c-1.09,2.145-2.454,4.319-4.089,6.525
	c-1.636,2.205-3.102,3.872-4.398,4.999c-1.309,1.139-2.175,1.936-2.599,2.39c-0.424,0.465-0.939,0.894-1.545,1.287l-0.908,0.606
	l-0.182,0.092l-0.182,0.092l-0.036,0.055l-0.055,0.037l-0.055,0.037l-0.036,0.055l-0.182,0.092l-0.182,0.092l-0.036,0.055
	l-0.055,0.037l-0.055,0.037l-0.036,0.055l-0.036,0.055l-0.055,0.037l-0.055,0.037l-0.036,0.055h0.908l5.09-1.103
	c3.393-0.736,6.634-1.624,9.724-2.665l4.907-1.654l0.546-0.184l0.272-0.092l0.182-0.092l0.182-0.092l0.182-0.092l0.182-0.092
	l0.364-0.055l0.364-0.037v0.367l-0.091,0.037l-0.091,0.055l-0.036,0.055l-0.055,0.037l-0.055,0.037l-0.036,0.055l-0.036,0.055
	l-0.055,0.037l-0.055,0.037l-0.036,0.055l-0.036,0.055l-0.055,0.037l-0.091,0.184l-0.091,0.184l-0.055,0.037
	c-0.024,0.037-0.793,1.078-2.308,3.125c-1.514,2.058-2.332,3.1-2.454,3.125c-0.121,0.037-0.29,0.22-0.509,0.551
	c-0.206,0.342-1.491,1.709-3.854,4.099s-4.677,4.515-6.943,6.377c-2.279,1.875-3.429,4.178-3.453,6.911
	c-0.036,2.72-0.176,5.796-0.418,9.226c-0.242,3.431-0.697,7.137-1.363,11.12c-0.667,3.983-1.696,8.486-3.09,13.509
	c-1.394,5.024-3.09,9.924-5.09,14.703c-1.999,4.778-4.089,9.067-6.27,12.865s-4.18,7.015-5.997,9.649
	c-1.818,2.635-3.665,5.115-5.543,7.443s-4.253,4.95-7.124,7.866c-2.884,2.904-4.459,4.496-4.725,4.778
	c-0.279,0.27-1.466,1.275-3.563,3.014c-2.085,1.753-4.326,3.504-6.725,5.256c-2.387,1.74-4.58,3.192-6.58,4.356
	c-1.999,1.164-4.41,2.494-7.233,3.988c-2.811,1.507-5.852,2.904-9.124,4.191c-3.271,1.287-6.725,2.481-10.36,3.584
	c-3.635,1.103-7.149,1.96-10.542,2.573c-3.393,0.613-7.239,1.133-11.541,1.562l-6.451,0.644v0.092h-11.813v-0.092l-1.545-0.092
	c-1.03-0.061-1.878-0.123-2.545-0.184s-3.18-0.398-7.543-1.011c-4.362-0.613-7.785-1.225-10.269-1.837
	c-2.483-0.613-6.179-1.777-11.087-3.493c-4.907-1.716-9.106-3.449-12.596-5.201c-3.477-1.74-5.658-2.843-6.543-3.308
	c-0.872-0.454-1.854-1.018-2.944-1.691l-1.636-1.011l-0.036-0.055l-0.055-0.037l-0.055-0.037l-0.036-0.055l-0.182-0.092
	l-0.182-0.092l-0.036-0.055l-0.055-0.037l-0.055-0.037l-0.036-0.055l-0.036-0.055l-0.055-0.037h-0.091v-0.367l0.182,0.037
	l0.182,0.055l0.818,0.092c0.546,0.061,2.029,0.153,4.453,0.276c2.424,0.123,4.998,0.123,7.724,0
	c2.726-0.123,5.513-0.398,8.361-0.827c2.848-0.429,6.21-1.164,10.087-2.205c3.878-1.042,7.44-2.279,10.688-3.713
	c3.236-1.446,5.537-2.524,6.906-3.234c1.357-0.698,3.429-1.998,6.216-3.896l4.18-2.849l0.036-0.055l0.055-0.037l0.055-0.037
	l0.036-0.055l0.036-0.055l0.055-0.037l0.055-0.037l0.036-0.055l0.182-0.055l0.182-0.037l0.036-0.184l0.055-0.184l0.055-0.037
	l0.036-0.055l-1.454-0.092c-0.97-0.061-1.908-0.123-2.817-0.184c-0.909-0.061-2.332-0.337-4.271-0.827
	c-1.939-0.49-4.029-1.225-6.27-2.205c-2.242-0.98-4.422-2.145-6.543-3.493c-2.121-1.348-3.654-2.469-4.598-3.364
	c-0.933-0.883-2.145-2.133-3.635-3.749c-1.479-1.63-2.763-3.302-3.854-5.017c-1.09-1.716-2.133-3.695-3.126-5.936l-1.509-3.346
	l-0.091-0.276l-0.091-0.276l-0.055-0.184l-0.036-0.184l0.272,0.037l0.272,0.055l1.999,0.276c1.333,0.184,3.423,0.245,6.27,0.184
	c2.847-0.061,4.817-0.184,5.907-0.367c1.09-0.184,1.757-0.306,1.999-0.367l0.364-0.092l0.454-0.092l0.454-0.092l0.036-0.055
	l0.055-0.037l0.055-0.037l0.036-0.055l-0.36-0.096l-0.364-0.092l-0.364-0.092l-0.364-0.092l-0.364-0.092
	c-0.242-0.061-0.667-0.184-1.272-0.367c-0.605-0.184-2.242-0.858-4.907-2.022c-2.666-1.164-4.786-2.297-6.362-3.4
	c-1.579-1.106-3.084-2.315-4.508-3.621c-1.417-1.323-2.974-3.026-4.672-5.109c-1.696-2.083-3.211-4.502-4.544-7.259
	c-1.333-2.757-2.332-5.391-2.999-7.903c-0.663-2.497-1.102-5.051-1.308-7.627l-0.327-3.86l0.182,0.037l0.182,0.055l0.182,0.092
	l0.182,0.092l0.182,0.092l0.182,0.092l2.817,1.287c1.878,0.857,4.21,1.593,6.998,2.205c2.787,0.612,4.453,0.949,4.998,1.011
	l0.818,0.092h1.636l-0.036-0.055l-0.055-0.037l-0.055-0.037l-0.036-0.055l-0.036-0.055l-0.055-0.037l-0.055-0.037l-0.036-0.055
	l-0.182-0.092l-0.182-0.092l-0.036-0.055l-0.055-0.037l-0.055-0.037l-0.036-0.055l-0.182-0.092l-0.182-0.092l-0.036-0.055
	c-0.036-0.025-0.557-0.417-1.563-1.176c-0.993-0.773-2.035-1.77-3.126-2.996c-1.09-1.225-2.181-2.512-3.271-3.86
	c-1.093-1.351-2.065-2.797-2.908-4.319c-0.848-1.532-1.745-3.48-2.689-5.844c-0.933-2.352-1.642-4.724-2.127-7.112
	c-0.484-2.39-0.757-4.747-0.818-7.076c-0.061-2.328,0-4.319,0.182-5.973s0.546-3.522,1.09-5.605
	c0.546-2.083,1.333-4.288,2.363-6.617l1.545-3.493l0.091-0.276l0.091-0.276l0.055-0.037l0.036-0.055l0.036-0.055l0.055-0.037
	l0.055,0.037l0.036,0.055l0.036,0.055l0.055,0.037l0.055,0.037l0.036,0.055l0.036,0.055l0.055,0.037l0.091,0.184l0.091,0.184
	l0.055,0.037l0.036,0.055l2.454,2.757c1.636,1.837,3.574,3.89,5.816,6.157c2.242,2.267,3.483,3.443,3.726,3.529
	c0.242,0.098,0.546,0.38,0.908,0.845c0.364,0.454,1.575,1.538,3.635,3.253c2.06,1.716,4.755,3.706,8.088,5.973
	c3.332,2.267,7.028,4.502,11.087,6.708c4.059,2.205,8.421,4.197,13.086,5.973c4.666,1.777,7.937,2.94,9.815,3.493
	c1.878,0.551,5.09,1.256,9.633,2.114c4.544,0.857,7.967,1.409,10.269,1.654c2.302,0.245,3.878,0.386,4.725,0.423l1.272,0.037
	l-0.036-0.276l-0.055-0.276l-0.364-2.297c-0.242-1.532-0.364-3.676-0.364-6.433c0-2.757,0.212-5.299,0.636-7.627
	c0.424-2.328,1.06-4.687,1.908-7.076c0.849-2.39,1.678-4.307,2.489-5.753c0.824-1.434,1.902-3.069,3.236-4.907
	c1.333-1.837,3.06-3.737,5.179-5.698c2.121-1.96,4.544-3.706,7.269-5.238c2.726-1.532,5.241-2.696,7.543-3.493
	c2.302-0.797,4.241-1.317,5.816-1.562C283.108,167.606,283.896,167.465,283.896,167.429z"/>
</svg>
