<?xml version="1.0" encoding="utf-8"?>
<!-- Generator: Adobe Illustrator 17.0.0, SVG Export Plug-In . SVG Version: 6.00 Build 0)  -->
<!DOCTYPE svg PUBLIC "-//W3C//DTD SVG 1.1//EN" "http://www.w3.org/Graphics/SVG/1.1/DTD/svg11.dtd">
<svg version="1.1" id="Layer_1" xmlns="http://www.w3.org/2000/svg" xmlns:xlink="http://www.w3.org/1999/xlink" x="0px" y="0px"
	 width="500px" height="500px" viewBox="0 0 500 500" enable-background="new 0 0 500 500" xml:space="preserve">
<path fill="#FFFFFF" stroke="#5FA8DB" stroke-width="0.5" d="M333.748,40.246v-0.091h23.507l8.589,1.737
	c5.726,1.128,10.925,2.606,15.596,4.434c4.672,1.829,9.192,3.962,13.562,6.4c4.37,2.438,8.333,4.922,11.89,7.451
	c3.526,2.499,6.69,5.15,9.494,7.954c2.772,2.834,7.097,3.566,12.974,2.194c5.877-1.372,12.206-3.276,18.987-5.714
	c6.781-2.438,13.487-5.181,20.117-8.228c6.63-3.048,10.669-4.983,12.116-5.806c1.416-0.853,2.17-1.31,2.26-1.372l0.09-0.137
	l0.452-0.229l0.452-0.229l0.452-0.229l0.452-0.229l0.09-0.137l0.136-0.091l0.136-0.091l0.09-0.137l0.452-0.137l0.452-0.091
	l-0.09,0.686l-0.136,0.686l-0.226,0.686l-0.226,0.686l-0.226,0.457l-0.226,0.457l-0.226,0.686c-0.151,0.457-0.301,1.066-0.452,1.829
	c-0.151,0.762-1.582,3.809-4.295,9.143c-2.712,5.333-6.103,10.743-10.171,16.229c-4.069,5.486-7.715,9.63-10.939,12.434
	c-3.255,2.834-5.41,4.815-6.465,5.943c-1.055,1.158-2.335,2.224-3.843,3.2l-2.26,1.508l-0.452,0.229l-0.452,0.229l-0.09,0.137
	l-0.136,0.091l-0.136,0.091l-0.09,0.137l-0.452,0.229l-0.452,0.229l-0.09,0.137l-0.136,0.091l-0.136,0.091l-0.09,0.137l-0.09,0.137
	l-0.136,0.091l-0.136,0.091l-0.09,0.137h2.26l12.658-2.743c8.439-1.829,16.5-4.038,24.186-6.629l12.206-4.114l1.356-0.457
	l0.678-0.229l0.452-0.229l0.452-0.229l0.452-0.229l0.452-0.229l0.904-0.137l0.904-0.091v0.914l-0.226,0.091l-0.226,0.137
	l-0.09,0.137l-0.136,0.091l-0.136,0.091l-0.09,0.137l-0.09,0.137l-0.136,0.091l-0.136,0.091l-0.09,0.137l-0.09,0.137l-0.136,0.091
	l-0.226,0.457l-0.226,0.457l-0.136,0.091c-0.06,0.091-1.974,2.682-5.741,7.771c-3.767,5.12-5.801,7.71-6.103,7.771
	c-0.301,0.091-0.723,0.548-1.266,1.372c-0.512,0.853-3.707,4.252-9.584,10.194c-5.877,5.943-11.633,11.23-17.268,15.863
	c-5.666,4.663-8.529,10.392-8.589,17.189c-0.09,6.766-0.437,14.415-1.04,22.949c-0.603,8.534-1.733,17.752-3.39,27.657
	c-1.657,9.905-4.219,21.105-7.685,33.6c-3.466,12.495-7.685,24.686-12.658,36.571c-4.973,11.885-10.171,22.552-15.596,32
	c-5.425,9.448-10.397,17.448-14.918,24c-4.521,6.552-9.116,12.724-13.788,18.514c-4.671,5.791-10.578,12.312-17.72,19.565
	c-7.173,7.223-11.091,11.185-11.754,11.885c-0.693,0.671-3.646,3.17-8.861,7.497c-5.184,4.358-10.759,8.716-16.727,13.074
	c-5.937,4.328-11.392,7.939-16.365,10.834s-10.97,6.202-17.992,9.92c-6.992,3.749-14.556,7.223-22.694,10.423
	c-8.137,3.2-16.727,6.171-25.768,8.914c-9.041,2.743-17.781,4.876-26.22,6.4c-8.438,1.524-18.007,2.819-28.706,3.886l-16.048,1.6
	v0.229h-29.384v-0.229l-3.843-0.229c-2.561-0.152-4.671-0.305-6.329-0.457c-1.657-0.152-7.911-0.991-18.761-2.514
	c-10.85-1.524-19.363-3.048-25.542-4.571c-6.178-1.524-15.37-4.419-27.576-8.686c-12.206-4.267-22.648-8.579-31.328-12.937
	c-8.649-4.328-14.074-7.07-16.274-8.228c-2.17-1.128-4.611-2.53-7.323-4.206l-4.069-2.514l-0.09-0.137l-0.136-0.091l-0.136-0.091
	l-0.09-0.137l-0.452-0.229l-0.452-0.229l-0.09-0.137l-0.136-0.091l-0.136-0.091l-0.09-0.137l-0.09-0.137l-0.136-0.091h-0.226v-0.914
	l0.452,0.091l0.452,0.137l2.034,0.229c1.356,0.152,5.048,0.381,11.076,0.686c6.028,0.305,12.432,0.305,19.213,0
	c6.781-0.305,13.713-0.991,20.795-2.057c7.082-1.066,15.446-2.895,25.089-5.486c9.644-2.591,18.505-5.669,26.582-9.234
	c8.047-3.596,13.773-6.278,17.179-8.045c3.375-1.737,8.529-4.968,15.46-9.691l10.397-7.086l0.09-0.137l0.136-0.091l0.136-0.091
	l0.09-0.137l0.09-0.137l0.136-0.091l0.136-0.091l0.09-0.137l0.452-0.137l0.452-0.091l0.09-0.457l0.136-0.457l0.136-0.091l0.09-0.137
	l-3.617-0.229c-2.411-0.152-4.747-0.305-7.007-0.457c-2.26-0.152-5.801-0.838-10.623-2.057c-4.822-1.219-10.02-3.048-15.596-5.486
	c-5.575-2.438-11-5.333-16.274-8.686c-5.274-3.352-9.087-6.141-11.437-8.366c-2.32-2.195-5.334-5.303-9.041-9.326
	c-3.677-4.053-6.871-8.213-9.584-12.48c-2.712-4.267-5.304-9.189-7.775-14.765l-3.753-8.32l-0.226-0.686l-0.226-0.686l-0.136-0.457
	l-0.09-0.457l0.678,0.091l0.678,0.137l4.973,0.686c3.315,0.457,8.514,0.61,15.596,0.457c7.082-0.152,11.98-0.457,14.692-0.914
	c2.712-0.457,4.37-0.762,4.973-0.914l0.904-0.229l1.13-0.229l1.13-0.229l0.09-0.137l0.136-0.091l0.136-0.091l0.09-0.137
	l-0.904-0.229l-0.904-0.229l-0.904-0.229l-0.904-0.229l-0.904-0.229c-0.603-0.152-1.657-0.457-3.164-0.914
	c-1.507-0.457-5.575-2.134-12.206-5.029c-6.63-2.895-11.904-5.714-15.822-8.457c-3.928-2.751-7.673-5.759-11.211-9.005
	c-3.526-3.292-7.398-7.528-11.618-12.709c-4.219-5.181-7.986-11.2-11.302-18.057c-3.315-6.857-5.802-13.409-7.459-19.657
	c-1.651-6.211-2.74-12.561-3.254-18.971l-0.814-9.6l0.452,0.091l0.452,0.137l0.452,0.229l0.452,0.229l0.452,0.229l0.452,0.229
	l7.007,3.2c4.672,2.133,10.473,3.962,17.405,5.486c6.932,1.524,11.076,2.362,12.432,2.514l2.034,0.229h4.069l-0.09-0.137
	l-0.136-0.091l-0.136-0.091l-0.09-0.137l-0.09-0.137l-0.136-0.091l-0.136-0.091l-0.09-0.137l-0.452-0.229l-0.452-0.229l-0.09-0.137
	l-0.136-0.091l-0.136-0.091l-0.09-0.137l-0.452-0.229l-0.452-0.229l-0.09-0.137c-0.09-0.061-1.387-1.036-3.888-2.926
	c-2.471-1.92-5.063-4.403-7.776-7.451c-2.712-3.048-5.425-6.248-8.137-9.6c-2.717-3.36-5.138-6.955-7.233-10.743
	c-2.109-3.809-4.34-8.655-6.69-14.537c-2.32-5.851-4.084-11.749-5.289-17.691c-1.205-5.943-1.883-11.809-2.034-17.6
	c-0.151-5.791,0-10.743,0.452-14.857c0.452-4.114,1.356-8.762,2.712-13.943c1.356-5.181,3.315-10.666,5.877-16.457l3.843-8.686
	l0.226-0.686l0.226-0.686l0.136-0.091l0.09-0.137l0.09-0.137l0.136-0.091l0.136,0.091l0.09,0.137l0.09,0.137l0.136,0.091
	l0.136,0.091l0.09,0.137l0.09,0.137l0.136,0.091l0.226,0.457l0.226,0.457l0.136,0.091l0.09,0.137l6.103,6.857
	c4.069,4.571,8.891,9.676,14.466,15.314c5.576,5.638,8.665,8.564,9.267,8.777c0.603,0.244,1.356,0.945,2.26,2.103
	c0.904,1.128,3.918,3.825,9.041,8.091c5.124,4.267,11.829,9.219,20.117,14.857c8.288,5.638,17.48,11.2,27.576,16.685
	c10.096,5.486,20.946,10.438,32.548,14.857c11.603,4.419,19.74,7.314,24.412,8.686c4.672,1.372,12.658,3.124,23.959,5.257
	c11.302,2.133,19.816,3.505,25.542,4.114c5.726,0.61,9.644,0.96,11.754,1.051l3.164,0.091l-0.09-0.686l-0.136-0.686l-0.904-5.714
	c-0.603-3.809-0.904-9.143-0.904-16s0.528-13.181,1.582-18.971c1.055-5.791,2.638-11.657,4.747-17.6
	c2.11-5.943,4.174-10.713,6.193-14.309c2.05-3.566,4.732-7.634,8.047-12.206c3.315-4.571,7.61-9.295,12.884-14.171
	c5.274-4.876,11.302-9.219,18.082-13.028s13.035-6.705,18.761-8.686c5.726-1.981,10.548-3.276,14.466-3.886
	C331.79,40.688,333.748,40.337,333.748,40.246z"/>
</svg>
