<?xml version="1.0" encoding="utf-8"?>
<!-- Generator: Adobe Illustrator 17.0.0, SVG Export Plug-In . SVG Version: 6.00 Build 0)  -->
<!DOCTYPE svg PUBLIC "-//W3C//DTD SVG 1.1//EN" "http://www.w3.org/Graphics/SVG/1.1/DTD/svg11.dtd">
<svg version="1.1" id="Layer_1" xmlns="http://www.w3.org/2000/svg" xmlns:xlink="http://www.w3.org/1999/xlink" x="0px" y="0px"
	 width="500px" height="500px" viewBox="0 0 500 500" enable-background="new 0 0 500 500" xml:space="preserve">
<g>
	<path fill="#E0E1E0" d="M424.57,75.761C378.48,29.64,317.195,4.226,251.9,4.198C117.349,4.198,7.852,113.66,7.798,248.205
		c-0.016,43.008,11.222,84.99,32.581,121.996L5.749,496.648l129.401-33.931c35.652,19.444,75.795,29.689,116.645,29.706h0.104h0.001
		c134.529,0,244.043-109.482,244.1-244.02C496.023,183.196,470.654,121.885,424.57,75.761L424.57,75.761z M251.9,451.209h-0.079
		c-36.412-0.019-72.119-9.795-103.264-28.276l-7.412-4.394l-76.79,20.133l20.502-74.842l-4.829-7.673
		c-20.311-32.295-31.033-69.616-31.018-107.937c0.045-111.829,91.055-202.808,202.966-202.808
		c54.194,0.023,105.129,21.147,143.437,59.481c38.306,38.334,59.386,89.294,59.37,143.491
		C454.736,360.219,363.723,451.209,251.9,451.209z"/>
	<path fill="#FFFFFF" d="M191.58,144.612c-4.516-10.041-9.271-10.241-13.567-10.417c-3.514-0.151-7.538-0.142-11.554-0.142
		c-4.02,0-10.552,1.511-16.076,7.544c-5.528,6.033-21.105,20.618-21.105,50.281c0,29.666,21.607,58.33,24.619,62.356
		c3.015,4.02,41.71,66.838,102.992,91.005c50.931,20.084,61.295,16.089,72.35,15.084c11.055-1.005,35.671-14.581,40.696-28.661
		c5.025-14.076,5.025-26.142,3.517-28.664c-1.508-2.513-5.528-4.02-11.557-7.035c-6.03-3.015-35.671-17.603-41.198-19.613
		c-5.528-2.01-9.548-3.015-13.567,3.022c-4.02,6.03-15.568,19.606-19.086,23.626c-3.518,4.029-7.035,4.532-13.065,1.517
		c-6.03-3.024-25.448-9.384-48.484-29.924c-17.923-15.979-30.024-35.715-33.541-41.751c-3.518-6.03-0.377-9.296,2.647-12.302
		c2.707-2.701,6.03-7.038,9.045-10.559c3.008-3.521,4.014-6.033,6.023-10.053c2.01-4.027,1.005-7.547-0.502-10.562
		C208.658,186.35,196.941,156.534,191.58,144.612L191.58,144.612z"/>
	<path fill="#FFFFFF" d="M422.576,74.986C377.016,29.394,316.434,4.272,251.889,4.244C118.882,4.244,10.642,112.45,10.588,245.45
		c-0.016,42.515,11.093,84.014,32.206,120.595L8.562,491.04l127.916-33.541c35.244,19.22,74.925,29.349,115.307,29.365h0.103h0.001
		c132.985,0,241.24-108.225,241.297-241.219C493.208,181.188,468.131,120.581,422.576,74.986L422.576,74.986z M251.889,446.124
		h-0.078c-35.994-0.019-71.292-9.683-102.079-27.951l-7.327-4.344l-75.908,19.902l20.266-73.983l-4.774-7.584
		c-20.078-31.924-30.677-68.817-30.661-106.698c0.044-110.545,90.009-200.479,200.636-200.479
		c53.572,0.022,103.922,20.904,141.791,58.798c37.866,37.894,58.704,88.269,58.688,141.845
		C452.396,356.178,362.427,446.124,251.889,446.124z"/>
</g>
</svg>
