<?xml version="1.0" encoding="utf-8"?>
<!-- Generator: Adobe Illustrator 17.0.0, SVG Export Plug-In . SVG Version: 6.00 Build 0)  -->
<!DOCTYPE svg PUBLIC "-//W3C//DTD SVG 1.1//EN" "http://www.w3.org/Graphics/SVG/1.1/DTD/svg11.dtd">
<svg version="1.1" id="Layer_1" xmlns="http://www.w3.org/2000/svg" xmlns:xlink="http://www.w3.org/1999/xlink" x="0px" y="0px"
	 width="500px" height="500px" viewBox="0 0 500 500" enable-background="new 0 0 500 500" xml:space="preserve">
<circle fill="#316DD9" cx="251" cy="251" r="250"/>
<path fill="#FFFFFF" d="M255.502,321.108l-41.697-0.762c-13.5-0.266-27.035,0.264-40.27-2.488
	c-20.135-4.113-21.561-24.281-23.053-41.199c-2.056-23.784-1.26-47.998,2.62-71.583c2.191-13.233,10.814-21.131,24.148-21.99
	c45.014-3.118,90.326-2.749,135.24-1.294c4.743,0.134,9.519,0.862,14.197,1.692c23.088,4.047,23.651,26.902,25.148,46.142
	c1.492,19.439,0.862,38.976-1.99,58.282c-2.289,15.984-6.668,29.389-25.147,30.684c-23.154,1.692-45.777,3.054-68.997,2.62
	C255.702,321.108,255.569,321.108,255.502,321.108z M230.989,280.639c17.449-10.018,34.565-19.87,51.914-29.821
	c-17.481-10.018-34.565-19.87-51.914-29.821V280.639L230.989,280.639z"/>
</svg>
