<?xml version="1.0" encoding="utf-8"?>
<!-- Generator: Adobe Illustrator 17.0.0, SVG Export Plug-In . SVG Version: 6.00 Build 0)  -->
<!DOCTYPE svg PUBLIC "-//W3C//DTD SVG 1.1//EN" "http://www.w3.org/Graphics/SVG/1.1/DTD/svg11.dtd">
<svg version="1.1" id="Layer_1" xmlns="http://www.w3.org/2000/svg" xmlns:xlink="http://www.w3.org/1999/xlink" x="0px" y="0px"
	 width="500px" height="500px" viewBox="0 0 500 500" enable-background="new 0 0 500 500" xml:space="preserve">
<path fill="#FFFFFF" d="M263.018,424.056l-103.343-1.89c-33.46-0.659-67.004,0.656-99.808-6.167
	C9.964,405.804,6.429,355.818,2.73,313.889c-5.097-58.947-3.124-118.963,6.495-177.418c5.43-32.799,26.801-52.371,59.85-54.5
	c111.565-7.729,223.871-6.813,335.188-3.207c11.757,0.331,23.594,2.137,35.186,4.194c57.223,10.031,58.619,66.676,62.328,114.361
	c3.699,48.177,2.137,96.601-4.933,144.45c-5.673,39.617-16.526,72.84-62.328,76.048c-57.387,4.194-113.457,7.57-171.006,6.495
	C263.513,424.056,263.182,424.056,263.018,424.056z M202.263,323.756c43.246-24.83,85.667-49.247,128.666-73.91
	c-43.327-24.83-85.667-49.247-128.666-73.91L202.263,323.756L202.263,323.756z"/>
</svg>
